PathFileType	4	(X/Y/Z)	/Users/itak/Documents/Research/Walk-IL/dataset/trc/00471_00167.trc
DataRate	CameraRate	NumFrames	NumMarkers	Units	OrigDataRate	OrigDataStartFrame	OrigNumFrames
100.000000	100.000000	4	53	mm	100.000000	469	626
Frame#	Time	RPSI			LPSI			L3			STRN			T10			C7			CLAV			RBAK			LBAK			LSHO			LUPA			LAEL			LAOL			LWTS			LWPS			LFRA			LIFD			LHPS			LHTS			RSHO			RUPA			RAEL			RAOL			RWTS			RWPS			RFRA			RIFD			RHTS			RHPS			RBHD			LFHD			RFHD			LBHD			LHIP			RHIP			RASI			LASI			LKNE			LTHI			LANK			LTIP			LTOE			LMT1			LMT5			LHEE			RKNE			RTHI			RANK			RTIP			RTOE			RMT1			RMT5			RHEE			
		X1	Y1	Z1	X2	Y2	Z2	X3	Y3	Z3	X4	Y4	Z4	X5	Y5	Z5	X6	Y6	Z6	X7	Y7	Z7	X8	Y8	Z8	X9	Y9	Z9	X10	Y10	Z10	X11	Y11	Z11	X12	Y12	Z12	X13	Y13	Z13	X14	Y14	Z14	X15	Y15	Z15	X16	Y16	Z16	X17	Y17	Z17	X18	Y18	Z18	X19	Y19	Z19	X20	Y20	Z20	X21	Y21	Z21	X22	Y22	Z22	X23	Y23	Z23	X24	Y24	Z24	X25	Y25	Z25	X26	Y26	Z26	X27	Y27	Z27	X28	Y28	Z28	X29	Y29	Z29	X30	Y30	Z30	X31	Y31	Z31	X32	Y32	Z32	X33	Y33	Z33	X34	Y34	Z34	X35	Y35	Z35	X36	Y36	Z36	X37	Y37	Z37	X38	Y38	Z38	X39	Y39	Z39	X40	Y40	Z40	X41	Y41	Z41	X42	Y42	Z42	X43	Y43	Z43	X44	Y44	Z44	X45	Y45	Z45	X46	Y46	Z46	X47	Y47	Z47	X48	Y48	Z48	X49	Y49	Z49	X50	Y50	Z50	X51	Y51	Z51	X52	Y52	Z52	X53	Y53	Z53	

470	4.69	-302.1856994628906	917.8111572265625	-349.5840759277344	-305.2777404785156	927.2540283203125	-208.1695251464844	-312.9251098632812	1018.719970703125	-282.301513671875	-577.3414306640625	1224.608764648438	-301.4422912597656	-295.7426452636719	1142.616088867188	-274.3529968261719	-352.4767150878906	1414.51513671875	-290.6807250976562	-535.7733764648438	1334.816772460938	-296.9166564941406	-278.9308471679688	1288.8173828125	-371.0203552246094	-328.0527038574219	1367.221313476562	-190.0679321289062	-436.0575256347656	1390.60595703125	-120.4073944091797	-429.4439392089844	1271.292114257812	-22.98183250427246	-444.7350769042969	1056.342651367188	8.114811897277832	-368.456787109375	1043.056884765625	-61.33175277709961	-514.0826416015625	847.0249633789062	-27.15751457214355	-463.9594116210938	838.9063110351562	27.32034301757812	-460.4704895019531	968.1010131835938	20.52202987670898	-502.0864868164062	688.859619140625	-4.480968475341797	-463.5844421386719	762.8860473632812	33.05852508544922	-520.6980590820312	760.9464111328125	-11.6221170425415	-395.6358947753906	1381.916870117188	-456.0255432128906	-360.2718200683594	1322.055297851562	-524.0917358398438	-315.7890930175781	1040.553100585938	-573.53369140625	-274.755615234375	1030.425659179688	-520.0930786132812	-392.6707763671875	819.1083374023438	-546.4990844726562	-315.3327331542969	817.7510986328125	-590.109375	-308.5633239746094	982.4651489257812	-582.6842651367188	-344.3511657714844	654.35546875	-541.3013916015625	-376.8492736816406	715.4432373046875	-550.3521118164062	-313.6580200195312	729.9935302734375	-586.0884399414062	-480.6015930175781	1610.781494140625	-394.1250610351562	-623.6307983398438	1588.010864257812	-245.7277374267578	-615.7070922851562	1587.055908203125	-376.6395263671875	-477.0060424804688	1621.40966796875	-217.0462951660156	-435.3250427246094	831.2279663085938	-88.55023193359375	-436.6708679199219	830.0748901367188	-489.3754272460938	-531.3634033203125	885.1656494140625	-423.5303039550781	-539.1864624023438	868.117431640625	-167.0515289306641	-370.4872131347656	419.7261352539062	-94.80645751953125	-433.1119689941406	568.3784790039062	-90.7139892578125	-56.33061218261719	113.6000518798828	-72.59854888916016	-267.3335571289062	299.6997375488281	-69.53945922851562	-226.2359466552734	37.89412689208984	-200.9820251464844	-164.4540100097656	63.49218368530273	-204.8390502929688	-177.3789825439453	37.58900451660156	-96.93413543701172	-18.36929321289062	160.0427551269531	-123.7854080200195	-606.2916259765625	469.5912475585938	-451.2174072265625	-522.3770751953125	714.7884521484375	-497.8991088867188	-644.8162841796875	42.6758918762207	-448.3634948730469	-646.9783935546875	327.9096984863281	-458.2247619628906	-861.8896484375	49.77410888671875	-395.511474609375	-794.4631958007812	49.7560920715332	-361.4087219238281	-778.079345703125	47.63288497924805	-467.7310791015625	-578.6412963867188	36.49337768554688	-404.7979736328125	
471	4.7	-309.9244995117188	920.09228515625	-352.8959045410156	-312.2443237304688	929.4242553710938	-211.3920440673828	-320.41162109375	1021.231018066406	-286.0109558105469	-584.7721557617188	1226.899169921875	-304.4696960449219	-303.0550231933594	1144.990966796875	-278.2297058105469	-359.9225463867188	1416.631958007812	-294.8113098144531	-543.3181762695312	1337.17919921875	-300.3341369628906	-287.0459289550781	1290.87939453125	-375.5857849121094	-335.4620666503906	1369.781372070312	-194.08984375	-443.4367370605469	1393.759155273438	-124.4773101806641	-436.8744506835938	1275.172485351562	-26.43449401855469	-450.948974609375	1060.009887695312	4.987240314483643	-375.2263488769531	1046.700927734375	-64.98329925537109	-520.7894287109375	850.5045776367188	-29.34358406066895	-470.0360412597656	842.345703125	24.56863784790039	-466.6550903320312	971.7969360351562	17.65045738220215	-507.8993835449219	692.0861206054688	-7.389859676361084	-469.1757202148438	766.1749877929688	29.88789367675781	-526.9032592773438	764.1724243164062	-14.05935382843018	-403.9038696289062	1384.339477539062	-459.8373107910156	-369.1477355957031	1324.619995117188	-528.3248291015625	-327.34814453125	1042.367553710938	-578.2257080078125	-285.6865844726562	1031.537719726562	-525.2941284179688	-407.8191223144531	822.0401611328125	-549.7074584960938	-331.4354553222656	819.5188598632812	-594.3760986328125	-321.2655944824219	984.1211547851562	-587.33203125	-362.4387512207031	656.755615234375	-544.5853271484375	-394.5785217285156	718.802490234375	-553.6947021484375	-331.4493713378906	731.7344360351562	-589.96435546875	-488.1650695800781	1612.64501953125	-397.9803771972656	-630.4931030273438	1590.44970703125	-248.9612426757812	-623.2152709960938	1589.310302734375	-379.860107421875	-483.708251953125	1623.462280273438	-220.917236328125	-442.7718505859375	832.2991333007812	-92.08956909179688	-444.6095275878906	831.6139526367188	-492.3540954589844	-538.944091796875	886.5302124023438	-426.4001159667969	-546.3700561523438	870.35302734375	-170.0353698730469	-386.3501892089844	419.3671264648438	-95.38470458984375	-446.4759826660156	568.9852905273438	-92.28291320800781	-63.9678955078125	121.6771850585938	-72.49950408935547	-280.2921142578125	301.5496826171875	-69.71401214599609	-227.5029754638672	37.31285858154297	-200.6728668212891	-168.2884368896484	65.25331878662109	-205.1248779296875	-179.5176086425781	38.15197372436523	-97.39771270751953	-28.9674072265625	170.1157073974609	-123.6986694335938	-610.4511108398438	469.6744995117188	-452.6219482421875	-529.3851318359375	715.7667846679688	-500.5041198730469	-644.9517822265625	42.81129455566406	-448.2801208496094	-649.9127807617188	327.5683288574219	-459.1534729003906	-861.9921875	49.30609512329102	-395.2457580566406	-794.5487060546875	49.79193115234375	-361.2869262695312	-778.1446533203125	47.72980499267578	-467.7190551757812	-578.6561889648438	36.58575057983398	-404.7484436035156	
472	4.71	-317.4572143554688	922.2717895507812	-356.3709716796875	-318.8060302734375	931.39111328125	-214.7680511474609	-327.7230834960938	1023.625	-289.8923950195312	-592.0596923828125	1228.944458007812	-307.3145751953125	-310.1437683105469	1147.22705078125	-282.2371520996094	-367.2532348632812	1418.63134765625	-298.9201965332031	-550.7891845703125	1339.317504882812	-303.6188049316406	-295.1476440429688	1292.79345703125	-380.211181640625	-342.6589050292969	1372.198364257812	-198.1098175048828	-450.5889892578125	1396.725952148438	-128.496337890625	-444.1651000976562	1278.859985351562	-29.83222389221191	-457.3165588378906	1063.513549804688	2.066317081451416	-381.9776611328125	1050.093627929688	-68.20383453369141	-527.82177734375	853.8875732421875	-31.49228858947754	-476.5986633300781	845.6217651367188	21.98299789428711	-473.118408203125	975.3428344726562	14.94790458679199	-514.1158447265625	695.16064453125	-10.47988796234131	-475.2779541015625	769.2489013671875	26.75986862182617	-533.473876953125	767.2599487304688	-16.61660003662109	-412.1581115722656	1386.616821289062	-463.5875244140625	-377.995361328125	1327.103515625	-532.5196533203125	-338.6771545410156	1044.169189453125	-583.107666015625	-296.4164123535156	1032.545532226562	-530.7242431640625	-423.1451110839844	825.2531127929688	-553.1287841796875	-347.7782287597656	821.3536987304688	-598.8240966796875	-333.8754577636719	985.7902221679688	-592.1919555664062	-382.7039794921875	660.4864501953125	-548.6316528320312	-413.1501770019531	722.7280883789062	-557.3405151367188	-349.7128295898438	733.580078125	-593.971923828125	-495.5467529296875	1614.443359375	-401.7192993164062	-637.1636962890625	1592.818359375	-252.0655517578125	-630.5426025390625	1591.522338867188	-382.9427795410156	-490.204345703125	1625.400390625	-224.6628112792969	-449.7602844238281	833.2705688476562	-95.54334259033203	-452.2820129394531	832.913330078125	-495.2757873535156	-546.3681030273438	887.490966796875	-429.0841369628906	-553.113525390625	872.4260864257812	-172.787841796875	-402.6683349609375	418.9842834472656	-95.94252777099609	-459.8576049804688	569.5679931640625	-93.62142944335938	-72.48348999023438	130.0060272216797	-72.31829833984375	-293.9548034667969	303.3228149414062	-69.95578765869141	-229.5940551757812	36.59252166748047	-200.1806335449219	-172.9010620117188	67.56083679199219	-205.4386291503906	-182.1685791015625	39.0372314453125	-97.89964294433594	-40.40626907348633	180.2875671386719	-123.4666900634766	-613.8834228515625	469.4654846191406	-454.0033569335938	-535.8555908203125	716.4163208007812	-503.0593872070312	-645.052978515625	42.90969085693359	-448.181640625	-652.3651123046875	327.1037292480469	-460.0404052734375	-862.060302734375	48.97389221191406	-395.0495910644531	-794.6400756835938	49.79494857788086	-361.1775817871094	-778.2006225585938	47.78787612915039	-467.6972045898438	-578.6583251953125	36.66053009033203	-404.6669921875	
473	4.72	-324.7251892089844	924.3564453125	-359.9129943847656	-324.9598388671875	933.0554809570312	-218.2091827392578	-334.8327331542969	1025.87890625	-293.8830261230469	-599.2149658203125	1230.7099609375	-309.9618530273438	-317.0162048339844	1149.305541992188	-286.3456726074219	-374.474365234375	1420.491088867188	-303.0098571777344	-558.1931762695312	1341.189208984375	-306.7347717285156	-303.2266540527344	1294.53759765625	-384.8865966796875	-349.6189270019531	1374.440185546875	-202.1338653564453	-457.4735717773438	1399.441650390625	-132.4373931884766	-451.2293090820312	1282.253540039062	-33.18401336669922	-463.8392333984375	1066.782470703125	-0.643451988697052	-388.6934509277344	1053.147705078125	-70.98368072509766	-535.1854858398438	857.121337890625	-33.61882400512695	-483.690673828125	848.6857299804688	19.58480453491211	-479.8624572753906	978.672607421875	12.4257173538208	-520.7740478515625	698.0538330078125	-13.72699928283691	-481.9655151367188	772.067138671875	23.73275947570801	-540.4423828125	770.16845703125	-19.29359245300293	-420.4170837402344	1388.689819335938	-467.2792663574219	-386.8511657714844	1329.420776367188	-536.665771484375	-349.7919006347656	1045.897705078125	-588.1741943359375	-306.96923828125	1033.400024414062	-536.3804931640625	-438.6761169433594	828.7957763671875	-556.7960815429688	-364.3260192871094	823.2277221679688	-603.456298828125	-346.398681640625	987.4212036132812	-597.2606201171875	-405.1766662597656	665.5936889648438	-553.4964599609375	-432.4276733398438	727.1361694335938	-561.2595825195312	-368.3953857421875	735.5196533203125	-598.1387329101562	-502.7521362304688	1616.165283203125	-405.34326171875	-643.650634765625	1595.103271484375	-255.0343170166016	-637.7022094726562	1593.68115234375	-385.8833923339844	-496.4974365234375	1627.211059570312	-228.289306640625	-456.2870788574219	834.0765380859375	-98.87728881835938	-459.6037292480469	834.064697265625	-498.0809936523438	-553.5746459960938	888.1546020507812	-431.5384521484375	-559.421875	874.282958984375	-175.2935638427734	-419.2868957519531	418.6438293457031	-96.53038024902344	-473.1275634765625	570.1341552734375	-94.77871704101562	-81.83594512939453	138.4993438720703	-72.07757568359375	-308.2046813964844	305.0587768554688	-70.30465698242188	-232.8136138916016	35.76722717285156	-199.419189453125	-178.5032653808594	70.46753692626953	-205.7199859619141	-185.5399475097656	40.36065292358398	-98.38135528564453	-52.53007125854492	190.3969268798828	-123.1304321289062	-616.75244140625	469.1149597167969	-455.3783264160156	-541.7982788085938	716.856201171875	-505.4824829101562	-645.1217041015625	42.9720573425293	-448.0840759277344	-654.4259033203125	326.594482421875	-460.9033813476562	-862.1041870117188	48.73292922973633	-394.9206237792969	-794.7314453125	49.76947402954102	-361.0874633789062	-778.249755859375	47.81217956542969	-467.6750793457031	-578.6560668945312	36.7189826965332	-404.5745544433594	
